<svg width="141" height="30" viewBox="0 0 141 30" fill="none" xmlns="http://www.w3.org/2000/svg">
<path d="M21.9087 6.86328H26.1281V29.5356H21.9087V6.86328Z" fill="#002C5F"/>
<path d="M46.023 29.5358H41.8035V27.1307C41.2232 28.0346 40.4156 28.7703 39.4616 29.2639C38.5076 29.7576 37.4406 29.992 36.3675 29.9437C31.902 29.9437 29.8345 26.8705 29.8345 22.4683V12.3628H34.0539V21.9971C34.0539 24.7327 35.3549 26.1673 37.8514 26.1673C38.7481 26.1753 39.6219 25.8845 40.335 25.3408C41.0481 24.7971 41.5599 24.0313 41.7895 23.1645V12.3628H46.0089L46.023 29.5358Z" fill="#002C5F"/>
<path d="M48.8779 20.9985C48.8779 15.6328 52.5137 11.9619 57.5137 11.9619C62.5137 11.9619 65.7837 15.4289 65.7837 20.4007C65.7578 21.0934 65.6897 21.7839 65.5798 22.4683H53.1677C53.6037 24.7678 55.2 26.3361 58.1677 26.3361C59.1203 26.32 60.056 26.0822 60.9008 25.6416C61.7455 25.2009 62.4759 24.5695 63.0341 23.7974L65.3688 26.5681C64.4701 27.6562 63.3391 28.5291 62.059 29.123C60.7788 29.7168 59.3819 30.0165 57.9708 29.9999C52.3941 29.9647 48.8779 25.9985 48.8779 20.9985ZM53.2099 18.9661H61.5784C61.3463 16.7299 59.8132 15.45 57.5137 15.45C55.2141 15.45 53.8006 16.7017 53.231 18.9661H53.2099Z" fill="#002C5F"/>
<path d="M15.235 17.4821L15.0802 17.4188L15.2209 17.3345C16.0242 16.9006 16.691 16.2518 17.1467 15.4607C17.6025 14.6697 17.8293 13.7674 17.8018 12.8548C17.8018 9.1066 15.0451 6.86328 10.4248 6.86328H0.354492V29.5356H10.685C15.9101 29.5356 18.7933 27.2501 18.7933 23.101C18.8603 21.9103 18.5533 20.7284 17.9152 19.7209C17.2772 18.7134 16.34 17.9306 15.235 17.4821ZM13.4698 13.2627C13.4698 15.2388 12.2532 16.2374 9.85521 16.2374H4.57391V10.3232H9.8763C12.2532 10.3232 13.4698 11.3148 13.4698 13.2909V13.2627ZM10.5162 26.0827H4.57391V19.7536H10.5373C13.1182 19.7536 14.4825 20.8506 14.4825 22.9252C14.4825 24.9997 13.0971 26.0827 10.5162 26.0827Z" fill="#002C5F"/>
<path d="M70.1787 6.86328H73.1815V29.5356H70.1787V6.86328Z" fill="#002C5F"/>
<path d="M80.91 12.8198H77.9072V29.5287H80.91V12.8198Z" fill="#002C5F"/>
<path d="M81.023 6.86328H77.7881V10.0982H81.023V6.86328Z" fill="#002C5F"/>
<path d="M85.2915 12.82H88.3014V15.3587C88.8801 14.4323 89.6938 13.6756 90.6597 13.1655C91.6255 12.6554 92.7092 12.41 93.8007 12.4543C98.1396 12.4543 100.439 15.2673 100.439 19.7961V29.5359H97.4364V20.0914C97.4364 16.8917 95.84 15.1688 92.999 15.1688C91.9445 15.1354 90.9091 15.4557 90.0578 16.0789C89.2064 16.7021 88.5881 17.5923 88.3014 18.6076V29.5359H85.2915V12.82Z" fill="#002C5F"/>
<path d="M110.242 20.5764L118.442 12.9392V12.8197H114.567L107.261 19.627V6.86328H104.258V29.5356H107.261V21.6734L116.135 29.5356H120.235V29.4301L110.242 20.5764Z" fill="#002C5F"/>
<path d="M126.157 9.52854C127.023 9.52826 127.876 9.74156 128.64 10.1496C129.404 10.5576 130.055 11.1477 130.537 11.8676C131.018 12.5875 131.315 13.4151 131.4 14.277C131.485 15.1389 131.357 16.0086 131.026 16.8089C130.695 17.6093 130.171 18.3157 129.502 18.8655C128.833 19.4153 128.039 19.7917 127.189 19.9612C126.34 20.1307 125.462 20.0881 124.633 19.8372C123.804 19.5864 123.05 19.1349 122.437 18.5229L120.545 20.4076C121.467 21.3289 122.602 22.0087 123.85 22.387C125.097 22.7652 126.418 22.8302 127.697 22.5762C128.975 22.3222 130.172 21.7571 131.18 20.9308C132.188 20.1044 132.977 19.0424 133.477 17.8386C133.977 16.6348 134.173 15.3263 134.047 14.0289C133.921 12.7315 133.477 11.4851 132.755 10.4001C132.032 9.31497 131.054 8.42462 129.905 7.80774C128.757 7.19087 127.474 6.86648 126.171 6.86328L126.157 9.52854Z" fill="#00AAD2"/>
<path d="M126.156 29.5357C128.591 29.5482 130.992 28.9584 133.144 27.8187C135.296 26.679 137.132 25.0249 138.49 23.0035C139.848 20.9822 140.686 18.6565 140.927 16.2334C141.169 13.8103 140.808 11.365 139.875 9.11533C138.943 6.86565 137.469 4.88137 135.585 3.33916C133.7 1.79695 131.464 0.744684 129.074 0.276052C126.685 -0.192579 124.216 -0.0630314 121.889 0.653161C119.561 1.36935 117.447 2.64996 115.734 4.38096L117.626 6.27267C119.029 4.87081 120.755 3.83642 122.653 3.26112C124.551 2.68581 126.561 2.58733 128.506 2.97441C130.451 3.36148 132.27 4.22215 133.803 5.48022C135.336 6.73829 136.535 8.35492 137.294 10.187C138.053 12.019 138.349 14.01 138.155 15.9835C137.96 17.957 137.283 19.8522 136.181 21.5013C135.08 23.1503 133.589 24.5024 131.84 25.4377C130.092 26.373 128.139 26.8627 126.156 26.8634V29.5357Z" fill="#00AAD2"/>
</svg>
