<svg width="38" height="38" viewBox="0 0 38 38" fill="none" xmlns="http://www.w3.org/2000/svg">
<path d="M19 0C8.5 0 0 8.5 0 19C0 29.5 8.5 38 19 38C29.5 38 38 29.5 38 19C38 8.5 29.5 0 19 0ZM37.1 19C37.1 29 29 37.1 19 37.1C9 37.1 0.9 29 0.9 19C0.9 9 9 0.9 19 0.9C29 0.9 37.1 9 37.1 19Z" fill="#66645F"/>
<path d="M10.5 19.5H8V15V24M10.5 19.5V15H13V13H17.5M10.5 19.5V24H14L17.5 27H24.5V24H27V26H28.5L30 23.5V18.5L28.5 16.5H27V18H24.5V16.5H22V13H17.5M17.5 13V11H13H22" stroke="#66645F" stroke-linecap="round" stroke-linejoin="round"/>
</svg>
