<svg width="120" height="120" viewBox="0 0 120 120" fill="none" xmlns="http://www.w3.org/2000/svg">
<path d="M103.678 39.4697C100.706 37.9001 97.5444 36.6046 94.386 35.4004C79.987 30.592 63.1718 28.8342 47.1908 30.7775C32.4191 32.7208 18.1118 36.2364 6.87392 46.4069C1.48573 51.4036 -1.67547 58.8944 0.926875 66.0143C4.3633 74.8035 13.4687 80.6334 21.6428 83.9581C45.7978 93.6746 78.5913 93.3036 101.912 82.203C109.903 78.2223 118.819 71.4733 119.934 61.9478C120.865 51.5891 111.76 43.91 103.678 39.4697ZM49.7959 43.6304C51.8394 39.7465 55.3703 35.1236 60.386 35.0322C70.8843 34.9381 81.0101 36.5132 90.5771 39.1929C91.1359 39.4697 91.8782 39.6552 92.1563 40.2088C92.4343 40.8538 91.8755 41.2275 91.5057 41.6898C83.6097 47.7938 74.596 51.2153 65.4016 54.2687C60.7557 55.376 56.0182 57.4162 50.8135 56.3034C49.6068 56.0265 48.4919 55.1961 47.8414 53.9919C46.543 50.3849 48.3085 46.6865 49.7959 43.6304ZM17.7448 75.5454C16.5354 76.6527 15.326 75.1717 14.2139 74.7094C8.63939 71.1024 3.62096 65.1811 5.10841 58.2439C7.42995 49.1779 16.8134 44.2754 24.7122 40.9452C29.3553 39.1901 34.1874 37.8032 39.2976 36.9672C39.8536 36.9672 40.5987 36.8731 40.7822 37.4295L40.5987 37.9859C30.5647 49.3662 23.9671 62.5014 17.7448 75.5454ZM68.9298 79.8915C66.6082 83.4099 62.8938 86.4605 58.3397 85.9982C48.2139 85.8128 38.1827 84.3318 28.9827 81.558C28.5184 81.4694 28.1486 81.187 27.9623 80.8216C27.776 80.2625 28.0541 79.8029 28.4267 79.4292C36.8815 72.6775 46.821 69.5355 56.7633 66.2026C60.4777 65.1839 64.3785 63.9852 68.56 64.5361C70.2337 64.7216 71.9992 65.9258 72.5581 67.4953C73.4839 72.2124 70.9761 76.099 68.9298 79.8915ZM114.827 62.961C112.505 72.3979 102.193 77.3973 94.0163 80.5365C89.5567 82.0175 85.0971 83.4985 80.1732 83.9581C79.8952 83.9581 79.3392 83.958 79.3392 83.4985L79.4309 82.9476C86.3983 75.1717 91.6002 66.4766 96.246 57.5989C98.3841 53.6209 100.333 49.5516 102.193 45.4851C102.471 45.2055 102.749 45.02 103.027 44.9287C104.701 45.2055 105.908 46.4983 107.3 47.4256C112.038 51.3095 116.311 56.583 114.827 62.961Z" fill="black"/>
</svg>
