<svg width="38" height="38" viewBox="0 0 38 38" fill="none" xmlns="http://www.w3.org/2000/svg">
<path d="M26.7 10.2008C26.7 10.1008 26.7 10.0008 26.6 9.90078C26.5 9.80078 26.4 9.80078 26.3 9.80078C26.1 9.80078 25.9 10.0008 25.9 10.2008V18.6008H19.5V10.2008C19.5 10.0008 19.3 9.80078 19.1 9.80078C18.9 9.80078 18.7 10.0008 18.7 10.2008V18.6008H12.3V10.2008C12.3 10.0008 12.1 9.80078 11.9 9.80078C11.7 9.80078 11.5 10.0008 11.5 10.2008V27.8008C11.5 28.0008 11.7 28.2008 11.9 28.2008C12.1 28.2008 12.3 28.0008 12.3 27.8008V19.4008H18.7V27.8008C18.7 28.0008 18.9 28.2008 19.1 28.2008C19.3 28.2008 19.5 28.0008 19.5 27.8008V19.4008H25.9V27.8008C25.9 28.0008 26.1 28.2008 26.3 28.2008C26.5 28.2008 26.7 28.0008 26.7 27.8008V10.2008Z" fill="#66645F"/>
<path d="M19 0C8.5 0 0 8.5 0 19C0 29.5 8.5 38 19 38C29.5 38 38 29.5 38 19C38 8.5 29.5 0 19 0ZM37.1 19C37.1 29 29 37.1 19 37.1C9 37.1 0.9 29 0.9 19C0.9 9 9 0.9 19 0.9C29 0.9 37.1 9 37.1 19Z" fill="#66645F"/>
<path d="M28.2998 19.0016C28.2998 19.2016 28.4998 19.4016 28.6998 19.4016H33.4998C33.5998 19.4016 33.6998 19.4016 33.7998 19.3016C33.8998 19.2016 33.8998 19.2016 33.8998 19.1016V19.0016C33.8998 18.9016 33.8998 18.8016 33.7998 18.7016C33.6998 18.6016 33.5998 18.6016 33.4998 18.6016H28.6998C28.4998 18.6016 28.2998 18.8016 28.2998 19.0016Z" fill="#66645F"/>
<path d="M9.7 19.0016C9.7 18.8016 9.5 18.6016 9.3 18.6016H4.4C4.2 18.6016 4 18.8016 4 19.0016C4 19.2016 4.2 19.4016 4.4 19.4016H9.2C9.5 19.4016 9.7 19.2016 9.7 19.0016Z" fill="#66645F"/>
</svg>
